# xmcd
#
# Track frame offsets: 
#        150
#        17447
#        29399
#        42921
#        56176
#        71801
#        84840
#        101289
#        111348
#        137769
#        151084
#        167171
#        176882
#        189739
#        209104
#
# Disc length: 2977 seconds
#
# Revision: 0
# Processed by: cddbd v1.5.2PL0 Copyright (c) Steve Scherf et al.
# Submitted via: ExactAudioCopyFreeDBPlugin 1.0
#
DISCID=d10b9f0f
DTITLE=Cadillac Angels - Fool Me Twice
DYEAR=2007
DGENRE=Rockabilly
TTITLE0=Too Much Lipstick
TTITLE1=Baby Doll
TTITLE2=Fiebre del Rey
TTITLE3=The Lonely One
TTITLE4=Call Me Baby
TTITLE5=Lena Marie
TTITLE6=Good Lookin' Woman
TTITLE7=I Got A Girl
TTITLE8=Roadhouse Rockin'
TTITLE9=Hey Loretta
TTITLE10=Little Eileen
TTITLE11=Jenny Kay
TTITLE12=Ready To Rock
TTITLE13=Feel Like Rockin'
TTITLE14=Please Give Me Something
EXTD=
EXTT0=
EXTT1=
EXTT2=
EXTT3=
EXTT4=
EXTT5=
EXTT6=
EXTT7=
EXTT8=
EXTT9=
EXTT10=
EXTT11=
EXTT12=
EXTT13=
EXTT14=
PLAYORDER=
